<svg width="133" height="39" viewBox="0 0 133 39" fill="none" xmlns="http://www.w3.org/2000/svg">
<path d="M55.1986 30H51.1009L44.1069 12.7371H48.7147L53.158 25.2441L57.6013 12.7371H62.2256L55.1986 30ZM67.1592 22.792C67.4335 24.0208 68.0204 24.9862 68.9201 25.6884C69.8306 26.3905 70.9058 26.7416 72.1455 26.7416C73.7363 26.7416 75.1022 26.215 76.2432 25.1618L78.2509 28.0746C77.4281 28.8316 76.4791 29.4185 75.4039 29.8354C74.3397 30.2523 73.1713 30.4608 71.8987 30.4608C70.2201 30.4608 68.7006 30.0603 67.3402 29.2595C65.9908 28.4476 64.9321 27.3505 64.1641 25.9681C63.3961 24.5858 63.0121 23.0773 63.0121 21.4426C63.0121 19.786 63.3742 18.2665 64.0983 16.8841C64.8224 15.5018 65.8262 14.4101 67.1098 13.6093C68.4044 12.7974 69.8526 12.3915 71.4544 12.3915C73.2207 12.3915 74.7457 12.7755 76.0293 13.5434C77.3129 14.3004 78.2893 15.3537 78.9586 16.7031C79.6278 18.0525 79.9624 19.594 79.9624 21.3274C79.9624 21.854 79.9295 22.3422 79.8637 22.792H67.1592ZM71.6189 16.0284C70.5218 16.0284 69.5783 16.3465 68.7884 16.9829C67.9985 17.6082 67.4664 18.4804 67.1921 19.5994H75.9141C75.6618 18.4585 75.1626 17.5808 74.4165 16.9664C73.6815 16.341 72.7489 16.0284 71.6189 16.0284ZM89.4229 30.4608C87.9418 30.4608 86.5485 30.2304 85.2429 29.7696C83.9374 29.3088 82.7525 28.6725 81.6883 27.8606L83.6795 24.8985C84.4256 25.4251 85.3033 25.8749 86.3126 26.2479C87.3329 26.6099 88.3258 26.791 89.2912 26.791C90.125 26.791 90.7833 26.6429 91.266 26.3466C91.7597 26.0504 92.0066 25.6335 92.0066 25.0959C92.0066 24.7339 91.8804 24.4267 91.6281 24.1744C91.3757 23.922 90.9753 23.6862 90.4267 23.4667C89.8782 23.2473 89.1157 23.0169 88.1393 22.7756C86.4278 22.3477 85.0564 21.7004 84.0251 20.8337C83.0048 19.956 82.4947 18.837 82.4947 17.4765C82.4947 16.5221 82.7689 15.6608 83.3175 14.8929C83.866 14.1139 84.6614 13.4995 85.7037 13.0497C86.7459 12.5889 87.9802 12.3586 89.4064 12.3586C90.4816 12.3586 91.5951 12.5506 92.7471 12.9345C93.91 13.3076 94.9523 13.8287 95.8739 14.4979L93.8662 17.5095C93.2627 17.1145 92.5277 16.7744 91.661 16.4892C90.8052 16.2039 89.9989 16.0613 89.2419 16.0613C88.419 16.0613 87.7937 16.1929 87.3658 16.4562C86.9489 16.7195 86.7405 17.0816 86.7405 17.5424C86.7405 17.8605 86.8447 18.1348 87.0531 18.3652C87.2726 18.5956 87.6346 18.815 88.1393 19.0235C88.6439 19.2209 89.3571 19.4404 90.2786 19.6817C91.5403 19.9999 92.6045 20.3784 93.4712 20.8172C94.3379 21.2451 95.0181 21.8101 95.5118 22.5123C96.0165 23.2034 96.2688 24.0592 96.2688 25.0795C96.2688 26.0998 95.9836 27.0214 95.4131 27.8442C94.8426 28.656 94.0362 29.2979 92.994 29.7696C91.9517 30.2304 90.7613 30.4608 89.4229 30.4608ZM103.839 30H99.6257V16.6044H97.1572V12.7371H99.6092V8.62292L103.839 7.61907V12.7371H107.64V16.6044H103.839V30ZM123.066 12.7535H126.72V30H123.05L122.754 27.9758C122.095 28.7328 121.322 29.3308 120.433 29.7696C119.545 30.1975 118.552 30.4114 117.455 30.4114C115.897 30.4114 114.449 30.011 113.11 29.2101C111.783 28.3982 110.729 27.3066 109.95 25.9352C109.171 24.5529 108.782 23.0389 108.782 21.3932C108.782 19.7476 109.171 18.239 109.95 16.8677C110.74 15.4853 111.799 14.3937 113.127 13.5928C114.454 12.7809 115.897 12.375 117.455 12.375C118.574 12.375 119.577 12.5944 120.466 13.0333C121.366 13.4721 122.145 14.0755 122.803 14.8435L123.066 12.7535ZM117.817 26.4289C118.727 26.4289 119.561 26.215 120.318 25.7871C121.075 25.3483 121.673 24.7504 122.112 23.9934C122.551 23.2254 122.77 22.3642 122.77 21.4097C122.77 20.4552 122.551 19.594 122.112 18.826C121.673 18.047 121.075 17.4382 120.318 16.9993C119.561 16.5605 118.727 16.341 117.817 16.341C116.917 16.341 116.094 16.5605 115.348 16.9993C114.602 17.4382 114.015 18.047 113.587 18.826C113.159 19.594 112.945 20.4552 112.945 21.4097C112.945 22.3642 113.159 23.2254 113.587 23.9934C114.015 24.7613 114.597 25.3592 115.332 25.7871C116.078 26.215 116.906 26.4289 117.817 26.4289Z" fill="black"/>
<path d="M18.1531 36.7668L10.4402 23.5447L21.2033 5.60623C21.3841 5.30503 21.7096 5.12073 22.0608 5.12073H35.7626C36.5251 5.12073 37.007 5.93984 36.6367 6.60637L19.8911 36.7486C19.5146 37.4262 18.5437 37.4364 18.1531 36.7668Z" fill="#FD4E33"/>
<path d="M15.9989 5.12073H1.71606C0.949836 5.12073 0.468281 5.94711 0.84604 6.61374L10.4403 23.5447H27.0219L16.8689 5.62771C16.6913 5.31438 16.359 5.12073 15.9989 5.12073Z" fill="#F7988A" fill-opacity="0.56"/>
</svg>
